<svg id="svg" version="1.1" xmlns="http://www.w3.org/2000/svg" xmlns:xlink="http://www.w3.org/1999/xlink" width="400" height="400" viewBox="0, 0, 400,400"><g id="svgg"><path id="path0" d="M240.600 92.706 C 240.380 92.868,239.753 93.900,239.207 95.000 C 238.661 96.100,237.333 98.530,236.256 100.400 C 235.179 102.270,233.939 104.430,233.502 105.200 C 233.064 105.970,232.397 107.050,232.018 107.600 C 231.640 108.150,231.231 108.870,231.111 109.200 C 230.602 110.588,218.592 128.272,214.403 133.800 C 203.766 147.836,186.629 166.549,176.488 175.200 C 171.451 179.497,164.842 184.721,160.622 187.740 L 156.645 190.586 162.222 191.246 C 185.811 194.034,204.449 194.355,227.200 192.365 C 233.935 191.776,239.518 191.076,249.200 189.609 C 255.355 188.676,265.108 186.661,274.400 184.403 C 280.179 182.999,291.544 179.675,296.200 178.027 C 297.300 177.638,299.100 176.999,300.200 176.607 C 303.387 175.472,304.353 175.395,304.633 176.255 C 304.965 177.274,306.233 180.759,307.196 183.300 C 308.533 186.829,308.466 187.226,306.400 187.997 C 305.410 188.367,304.330 188.777,304.000 188.910 C 303.133 189.259,296.671 191.341,293.400 192.325 C 291.860 192.789,289.430 193.530,288.000 193.971 C 284.834 194.949,273.621 197.853,270.711 198.449 C 269.550 198.686,267.880 199.043,267.000 199.241 C 262.994 200.144,254.053 201.828,250.100 202.423 C 248.725 202.631,246.385 202.990,244.900 203.222 C 242.375 203.616,240.064 203.892,231.600 204.809 C 213.680 206.751,186.150 206.734,168.000 204.770 C 157.801 203.667,156.651 203.516,150.200 202.432 C 145.953 201.718,142.638 201.171,141.100 200.930 C 140.112 200.775,139.600 200.849,139.600 201.147 C 139.600 201.396,139.415 201.600,139.189 201.600 C 138.529 201.600,133.638 205.474,130.664 208.352 C 123.052 215.719,117.042 226.220,114.846 235.992 L 114.492 237.570 116.746 238.228 C 119.769 239.111,133.596 242.561,136.600 243.181 C 137.920 243.454,139.855 243.840,140.900 244.038 C 141.945 244.237,143.655 244.565,144.700 244.767 C 148.208 245.445,152.276 246.104,159.800 247.213 C 185.830 251.050,218.296 250.742,245.600 246.400 C 246.810 246.208,249.150 245.845,250.800 245.594 C 252.450 245.344,254.520 244.987,255.400 244.802 C 256.280 244.617,258.080 244.256,259.400 244.000 C 271.390 241.677,288.075 237.171,299.089 233.281 C 304.332 231.429,304.324 231.426,305.584 235.200 C 306.062 236.630,306.607 238.160,306.795 238.600 C 308.206 241.894,308.528 243.274,307.968 243.626 C 307.297 244.049,292.673 248.917,289.322 249.834 C 288.045 250.183,286.460 250.621,285.800 250.807 C 283.439 251.471,278.171 252.870,276.600 253.250 C 275.720 253.463,274.280 253.818,273.400 254.040 C 270.848 254.684,265.520 255.856,262.600 256.416 C 261.500 256.627,259.700 256.979,258.600 257.198 C 254.876 257.940,252.112 258.399,244.100 259.607 C 216.555 263.761,179.826 263.440,150.600 258.789 C 146.412 258.122,143.606 257.638,141.600 257.235 C 140.610 257.037,138.720 256.661,137.400 256.400 C 134.332 255.794,132.301 255.362,129.800 254.784 C 128.700 254.529,127.170 254.177,126.400 254.000 C 124.742 253.620,116.361 251.396,114.500 250.843 L 113.200 250.456 113.200 282.195 C 113.200 299.652,113.091 314.219,112.957 314.567 C 112.785 315.015,112.950 315.200,113.519 315.200 C 114.459 315.200,117.600 316.797,117.600 317.274 C 117.600 317.453,118.140 317.600,118.800 317.600 C 119.460 317.600,120.000 317.780,120.000 318.000 C 120.000 318.220,120.360 318.400,120.800 318.400 C 121.240 318.400,121.600 318.580,121.600 318.800 C 121.600 319.020,121.960 319.200,122.400 319.200 C 122.840 319.200,123.200 319.391,123.200 319.624 C 123.200 319.857,123.353 319.952,123.541 319.836 C 123.729 319.720,124.224 319.884,124.641 320.200 C 125.058 320.516,125.769 320.780,126.220 320.787 C 126.671 320.794,127.211 320.961,127.420 321.157 C 127.943 321.649,132.861 323.661,133.600 323.686 C 133.930 323.697,134.534 323.997,134.942 324.353 C 135.350 324.709,135.757 324.947,135.845 324.882 C 136.187 324.634,138.800 325.308,138.800 325.645 C 138.800 325.840,139.520 326.000,140.400 326.000 C 141.280 326.000,142.000 326.180,142.000 326.400 C 142.000 326.620,142.330 326.800,142.733 326.800 C 143.137 326.800,143.589 326.922,143.738 327.071 C 144.184 327.517,149.330 329.179,150.300 329.190 C 150.795 329.195,151.200 329.380,151.200 329.600 C 151.200 329.820,151.740 330.000,152.400 330.000 C 153.060 330.000,153.600 330.180,153.600 330.400 C 153.600 330.620,154.320 330.800,155.200 330.800 C 156.080 330.800,156.800 330.980,156.800 331.200 C 156.800 331.420,157.430 331.600,158.200 331.600 C 158.970 331.600,159.600 331.761,159.600 331.958 C 159.600 332.295,160.117 332.413,164.300 333.032 C 165.235 333.171,166.000 333.445,166.000 333.642 C 166.000 333.839,166.911 334.000,168.024 334.000 C 169.271 334.000,169.952 334.153,169.800 334.400 C 169.649 334.644,170.263 334.800,171.376 334.800 C 172.379 334.800,173.200 334.980,173.200 335.200 C 173.200 335.426,174.333 335.600,175.800 335.600 C 177.267 335.600,178.400 335.774,178.400 336.000 C 178.400 336.220,179.379 336.400,180.576 336.400 C 181.773 336.400,182.848 336.554,182.964 336.742 C 183.080 336.930,184.375 337.116,185.842 337.157 C 187.309 337.197,188.844 337.410,189.254 337.629 C 190.188 338.129,216.702 338.088,216.877 337.586 C 216.944 337.392,218.571 337.202,220.492 337.165 C 222.413 337.128,223.887 336.941,223.768 336.749 C 223.650 336.557,224.703 336.400,226.110 336.400 C 227.516 336.400,228.802 336.265,228.967 336.100 C 229.332 335.735,229.480 335.713,232.024 335.650 C 233.260 335.619,233.951 335.444,233.800 335.200 C 233.647 334.952,234.396 334.800,235.776 334.800 C 236.999 334.800,238.000 334.620,238.000 334.400 C 238.000 334.180,238.709 334.000,239.576 334.000 C 240.443 334.000,241.264 333.820,241.400 333.600 C 241.536 333.380,242.256 333.200,243.000 333.200 C 243.744 333.200,244.464 333.020,244.600 332.800 C 244.736 332.580,245.557 332.400,246.424 332.400 C 247.291 332.400,248.000 332.220,248.000 332.000 C 248.000 331.780,248.705 331.600,249.567 331.600 C 250.428 331.600,251.193 331.422,251.267 331.203 C 251.340 330.985,251.895 330.766,252.500 330.716 C 253.105 330.666,253.600 330.485,253.600 330.313 C 253.600 330.141,254.275 329.997,255.100 329.994 C 256.216 329.989,256.446 329.888,256.000 329.600 C 255.555 329.312,255.793 329.211,256.924 329.206 C 257.836 329.202,258.348 329.040,258.200 328.800 C 258.056 328.567,258.463 328.400,259.176 328.400 C 259.849 328.400,260.400 328.220,260.400 328.000 C 260.400 327.780,261.019 327.600,261.776 327.600 C 262.533 327.600,263.264 327.420,263.400 327.200 C 263.536 326.980,263.997 326.800,264.424 326.800 C 264.851 326.800,265.200 326.620,265.200 326.400 C 265.200 326.180,265.639 326.000,266.176 326.000 C 266.713 326.000,267.264 325.820,267.400 325.600 C 267.536 325.380,267.997 325.200,268.424 325.200 C 268.851 325.200,269.200 325.045,269.200 324.855 C 269.200 324.665,269.650 324.559,270.200 324.620 C 270.750 324.680,271.200 324.565,271.200 324.365 C 271.200 324.164,271.472 324.000,271.805 324.000 C 272.138 324.000,272.723 323.843,273.105 323.650 C 276.080 322.152,277.353 321.600,277.838 321.600 C 278.147 321.600,278.400 321.420,278.400 321.200 C 278.400 320.980,278.760 320.800,279.200 320.800 C 279.640 320.800,280.000 320.620,280.000 320.400 C 280.000 320.180,280.435 320.000,280.967 320.000 C 281.498 320.000,281.993 319.836,282.067 319.637 C 282.140 319.437,282.560 319.212,283.000 319.137 C 283.440 319.061,284.149 318.685,284.575 318.300 C 285.002 317.915,285.677 317.600,286.075 317.600 C 286.474 317.600,286.800 317.420,286.800 317.200 C 286.800 316.980,287.132 316.800,287.538 316.800 C 287.944 316.800,288.602 316.440,289.000 316.000 C 289.398 315.560,289.966 315.200,290.262 315.200 C 290.558 315.200,290.800 315.020,290.800 314.800 C 290.800 314.580,291.160 314.400,291.600 314.400 C 292.040 314.400,292.400 314.220,292.400 314.000 C 292.400 313.780,292.760 313.600,293.200 313.600 C 293.640 313.600,294.000 313.420,294.000 313.200 C 294.000 312.980,294.283 312.800,294.629 312.800 C 294.974 312.800,295.529 312.528,295.861 312.196 C 296.193 311.864,296.658 311.712,296.894 311.858 C 297.149 312.015,297.207 311.936,297.038 311.662 C 296.869 311.388,297.007 311.200,297.376 311.200 C 297.719 311.200,298.000 311.020,298.000 310.800 C 298.000 310.580,298.360 310.400,298.800 310.400 C 299.240 310.400,299.600 310.220,299.600 310.000 C 299.600 309.780,299.894 309.600,300.253 309.600 C 300.612 309.600,301.229 309.228,301.623 308.774 C 302.017 308.319,302.439 307.944,302.561 307.939 C 303.330 307.908,304.400 307.451,304.400 307.153 C 304.400 306.959,304.648 306.800,304.951 306.800 C 305.254 306.800,305.730 306.526,306.008 306.190 C 306.286 305.855,306.607 305.674,306.721 305.788 C 306.835 305.902,307.180 305.636,307.487 305.197 C 307.794 304.759,308.305 304.400,308.623 304.400 C 308.940 304.400,309.200 304.220,309.200 304.000 C 309.200 303.780,309.393 303.600,309.629 303.600 C 309.864 303.600,310.329 303.328,310.661 302.996 C 310.993 302.664,311.458 302.512,311.694 302.658 C 311.949 302.815,312.007 302.736,311.838 302.462 C 311.669 302.188,311.807 302.000,312.176 302.000 C 312.519 302.000,312.800 301.820,312.800 301.600 C 312.800 301.380,313.171 301.200,313.624 301.200 C 314.077 301.200,314.336 301.020,314.200 300.800 C 314.064 300.580,314.194 300.400,314.488 300.400 C 314.783 300.400,315.283 300.040,315.600 299.600 C 315.917 299.160,316.407 298.800,316.688 298.800 C 316.970 298.800,317.200 298.620,317.200 298.400 C 317.200 298.180,317.470 298.000,317.800 298.000 C 318.130 298.000,318.400 297.820,318.400 297.600 C 318.400 297.380,318.655 297.200,318.966 297.200 C 319.277 297.200,320.042 296.660,320.665 296.000 C 321.288 295.340,322.034 294.800,322.322 294.800 C 322.611 294.800,322.736 294.620,322.600 294.400 C 322.464 294.180,322.599 294.000,322.901 294.000 C 323.418 294.000,324.337 293.233,325.524 291.810 C 325.812 291.465,326.191 291.271,326.366 291.379 C 326.540 291.487,327.506 290.787,328.511 289.824 C 329.516 288.860,330.438 288.172,330.560 288.293 C 330.682 288.415,330.895 288.219,331.033 287.857 C 331.172 287.496,331.436 287.200,331.621 287.200 C 331.805 287.200,332.842 286.300,333.924 285.200 C 335.007 284.100,336.108 283.200,336.370 283.200 C 336.633 283.200,336.736 283.020,336.600 282.800 C 336.464 282.580,336.663 282.400,337.043 282.400 C 337.423 282.400,337.639 282.305,337.523 282.189 C 337.407 282.073,338.007 281.219,338.856 280.289 C 339.705 279.360,340.400 278.375,340.400 278.100 C 340.400 277.825,340.599 277.600,340.843 277.600 C 341.086 277.600,341.190 277.350,341.072 277.044 C 340.955 276.738,341.206 276.116,341.629 275.661 C 342.053 275.206,342.400 274.365,342.400 273.793 C 342.400 273.201,342.572 272.859,342.800 273.000 C 343.039 273.147,343.200 272.663,343.200 271.800 C 343.200 271.004,343.353 270.448,343.541 270.563 C 343.728 270.679,343.863 240.893,343.841 204.373 C 343.805 145.815,343.729 137.926,343.200 137.589 C 342.870 137.379,341.232 136.718,339.559 136.121 C 337.558 135.406,336.396 134.755,336.159 134.217 C 335.925 133.685,335.347 133.356,334.500 133.275 C 333.785 133.206,333.200 132.981,333.200 132.775 C 333.200 132.569,332.928 132.400,332.595 132.400 C 332.262 132.400,331.587 132.192,331.095 131.938 C 329.165 130.940,328.782 130.800,327.982 130.800 C 327.526 130.800,327.240 130.658,327.348 130.485 C 327.455 130.312,327.060 130.130,326.471 130.081 C 325.882 130.033,325.340 129.815,325.267 129.597 C 325.193 129.378,324.598 129.200,323.943 129.200 C 323.288 129.200,322.841 129.057,322.949 128.883 C 323.056 128.709,322.755 128.537,322.278 128.501 C 321.802 128.465,321.349 128.248,321.273 128.018 C 321.196 127.788,320.698 127.600,320.167 127.600 C 319.635 127.600,319.200 127.420,319.200 127.200 C 319.200 126.980,319.065 126.834,318.900 126.876 C 318.342 127.018,315.817 126.299,315.006 125.767 C 314.563 125.477,314.020 125.207,313.800 125.169 C 312.691 124.973,311.073 124.347,308.862 123.257 C 307.906 122.786,306.771 122.400,306.339 122.400 C 305.906 122.400,305.664 122.220,305.800 122.000 C 305.944 121.767,305.537 121.600,304.824 121.600 C 304.151 121.600,303.600 121.420,303.600 121.200 C 303.600 120.980,303.150 120.800,302.600 120.800 C 302.050 120.800,301.600 120.620,301.600 120.400 C 301.600 120.180,301.328 120.000,300.995 120.000 C 300.662 120.000,300.077 119.835,299.695 119.633 C 297.993 118.733,295.156 117.600,294.604 117.600 C 294.272 117.600,294.000 117.420,294.000 117.200 C 294.000 116.980,293.755 116.800,293.456 116.800 C 293.157 116.800,291.762 116.236,290.356 115.547 C 288.950 114.858,287.350 114.116,286.800 113.899 C 286.250 113.681,285.260 113.218,284.600 112.870 C 283.940 112.521,283.400 112.290,283.400 112.355 C 283.400 112.420,282.635 112.167,281.700 111.793 C 280.765 111.419,280.000 110.953,280.000 110.757 C 280.000 110.560,279.676 110.400,279.280 110.400 C 278.884 110.400,278.318 110.175,278.021 109.900 C 277.583 109.493,277.545 109.512,277.818 110.000 C 278.104 110.512,278.057 110.522,277.494 110.066 C 277.132 109.772,276.647 109.647,276.418 109.789 C 276.188 109.931,276.000 109.772,276.000 109.436 C 276.000 109.040,275.775 108.912,275.360 109.071 C 275.007 109.206,274.602 109.155,274.460 108.958 C 274.082 108.437,270.822 106.800,270.162 106.800 C 269.853 106.800,269.600 106.620,269.600 106.400 C 269.600 106.180,269.330 106.000,269.000 106.000 C 268.670 106.000,268.397 105.775,268.394 105.500 C 268.390 105.167,268.258 105.200,268.000 105.600 C 267.742 106.000,267.610 106.033,267.606 105.700 C 267.603 105.425,267.240 105.200,266.800 105.200 C 266.360 105.200,266.000 105.020,266.000 104.800 C 266.000 104.580,265.640 104.400,265.200 104.400 C 264.760 104.400,264.400 104.220,264.400 104.000 C 264.400 103.780,264.040 103.600,263.600 103.600 C 263.160 103.600,262.800 103.420,262.800 103.200 C 262.800 102.980,262.440 102.800,262.000 102.800 C 261.560 102.800,261.200 102.620,261.200 102.400 C 261.200 102.180,260.840 102.000,260.400 102.000 C 259.960 102.000,259.600 101.820,259.600 101.600 C 259.600 101.380,259.120 101.200,258.533 101.200 C 257.947 101.200,257.586 101.081,257.732 100.935 C 258.012 100.654,255.139 99.182,253.817 98.929 C 253.387 98.847,252.937 98.649,252.817 98.490 C 252.462 98.017,249.171 96.400,248.562 96.400 C 248.253 96.400,248.000 96.220,248.000 96.000 C 248.000 95.780,247.735 95.600,247.411 95.600 C 246.620 95.600,243.200 93.921,243.200 93.533 C 243.200 93.364,242.932 93.328,242.603 93.454 C 242.263 93.585,241.901 93.408,241.761 93.042 C 241.491 92.339,241.210 92.258,240.600 92.706 " stroke="none" fill="#4bdbdb" fill-rule="evenodd"></path><path id="path1" d="M191.200 81.226 C 191.200 81.432,190.300 81.600,189.200 81.600 C 188.100 81.600,187.200 81.780,187.200 82.000 C 187.200 82.220,186.606 82.400,185.880 82.400 C 185.154 82.400,184.385 82.575,184.171 82.789 C 183.958 83.002,183.427 83.236,182.991 83.309 C 182.556 83.382,181.570 83.732,180.800 84.087 C 180.030 84.443,178.725 84.965,177.900 85.247 C 177.075 85.530,176.400 85.905,176.400 86.080 C 176.400 86.256,176.040 86.400,175.600 86.400 C 175.160 86.400,174.800 86.580,174.800 86.800 C 174.800 87.020,174.440 87.200,174.000 87.200 C 173.560 87.200,173.200 87.380,173.200 87.600 C 173.200 87.820,172.840 88.000,172.400 88.000 C 171.960 88.000,171.600 88.180,171.600 88.400 C 171.600 88.620,171.240 88.800,170.800 88.800 C 170.360 88.800,170.000 88.980,170.000 89.200 C 170.000 89.420,169.640 89.600,169.200 89.600 C 168.760 89.600,168.400 89.780,168.400 90.000 C 168.400 90.220,168.040 90.400,167.600 90.400 C 167.160 90.400,166.800 90.580,166.800 90.800 C 166.800 91.020,166.440 91.200,166.000 91.200 C 165.560 91.200,165.200 91.380,165.200 91.600 C 165.200 91.820,164.864 92.000,164.454 92.000 C 164.044 92.000,163.193 92.405,162.564 92.900 C 161.934 93.395,161.369 93.753,161.307 93.695 C 161.110 93.510,157.005 95.688,156.867 96.051 C 156.793 96.243,156.388 96.400,155.967 96.400 C 155.545 96.400,155.199 96.535,155.197 96.700 C 155.193 97.059,153.256 98.000,152.520 98.000 C 152.234 98.000,152.000 98.180,152.000 98.400 C 152.000 98.620,151.640 98.800,151.200 98.800 C 150.760 98.800,150.400 98.980,150.400 99.200 C 150.400 99.420,150.040 99.600,149.600 99.600 C 149.160 99.600,148.800 99.780,148.800 100.000 C 148.800 100.220,148.440 100.400,148.000 100.400 C 147.560 100.400,147.200 100.580,147.200 100.800 C 147.200 101.020,146.829 101.200,146.376 101.200 C 145.923 101.200,145.644 101.347,145.755 101.527 C 145.866 101.707,145.292 102.093,144.479 102.384 C 143.665 102.675,142.910 103.022,142.800 103.156 C 142.412 103.629,140.803 104.400,140.205 104.400 C 139.872 104.400,139.600 104.580,139.600 104.800 C 139.600 105.020,139.240 105.200,138.800 105.200 C 138.360 105.200,138.000 105.380,138.000 105.600 C 138.000 105.820,137.640 106.000,137.200 106.000 C 136.760 106.000,136.400 106.180,136.400 106.400 C 136.400 106.620,136.040 106.800,135.600 106.800 C 135.160 106.800,134.800 106.980,134.800 107.200 C 134.800 107.420,134.440 107.600,134.000 107.600 C 133.560 107.600,133.200 107.780,133.200 108.000 C 133.200 108.220,132.876 108.400,132.480 108.400 C 131.631 108.400,130.479 108.880,126.522 110.883 C 124.911 111.698,122.965 112.483,122.197 112.627 C 121.428 112.771,120.800 113.025,120.800 113.191 C 120.800 113.588,116.906 115.200,115.947 115.200 C 115.536 115.200,115.200 115.380,115.200 115.600 C 115.200 115.820,114.840 116.000,114.400 116.000 C 113.960 116.000,113.600 116.180,113.600 116.400 C 113.600 116.620,113.150 116.800,112.600 116.800 C 112.050 116.800,111.599 116.935,111.597 117.100 C 111.593 117.477,109.649 118.396,108.820 118.413 C 108.479 118.420,107.858 118.684,107.441 119.000 C 107.024 119.316,106.529 119.480,106.341 119.364 C 106.153 119.248,106.000 119.343,106.000 119.576 C 106.000 119.809,105.640 120.000,105.200 120.000 C 104.760 120.000,104.400 120.180,104.400 120.400 C 104.400 120.620,103.961 120.800,103.424 120.800 C 102.887 120.800,102.336 120.980,102.200 121.200 C 102.064 121.420,101.609 121.600,101.189 121.600 C 100.768 121.600,99.783 121.960,99.000 122.400 C 98.217 122.840,97.121 123.200,96.564 123.200 C 95.992 123.200,95.660 123.374,95.800 123.600 C 95.944 123.833,95.537 124.000,94.824 124.000 C 94.151 124.000,93.600 124.140,93.600 124.311 C 93.600 124.574,88.999 126.146,88.400 126.088 C 88.290 126.077,88.014 126.222,87.788 126.410 C 87.561 126.599,86.931 126.837,86.388 126.941 C 84.939 127.216,82.776 127.997,81.105 128.847 C 80.723 129.041,80.048 129.200,79.605 129.200 C 79.162 129.200,78.800 129.380,78.800 129.600 C 78.800 129.820,78.462 130.000,78.049 130.000 C 77.636 130.000,76.669 130.263,75.900 130.584 C 75.131 130.905,74.389 131.055,74.251 130.917 C 74.113 130.780,74.000 130.877,74.000 131.133 C 74.000 131.398,73.406 131.600,72.624 131.600 C 71.867 131.600,71.136 131.780,71.000 132.000 C 70.864 132.220,70.324 132.400,69.800 132.400 C 69.276 132.400,68.736 132.580,68.600 132.800 C 68.464 133.020,68.001 133.200,67.571 133.200 C 66.632 133.200,65.265 133.939,64.418 134.906 C 63.895 135.503,60.496 136.739,57.354 137.475 C 56.552 137.662,56.493 138.002,56.224 144.007 C 55.840 152.574,56.081 270.397,56.482 270.149 C 56.657 270.041,56.800 270.468,56.800 271.097 C 56.800 272.331,57.612 274.392,58.100 274.397 C 58.265 274.399,58.400 274.760,58.400 275.200 C 58.400 275.640,58.580 276.000,58.800 276.000 C 59.020 276.000,59.179 276.135,59.153 276.300 C 59.043 276.993,59.232 277.575,59.726 278.071 C 60.015 278.362,60.420 278.894,60.626 279.253 C 61.239 280.323,64.714 284.000,65.113 284.000 C 65.315 284.000,66.006 284.495,66.647 285.100 C 68.061 286.434,69.865 287.924,71.370 289.000 C 71.985 289.440,72.694 289.980,72.944 290.200 C 73.195 290.420,73.895 290.855,74.500 291.168 C 75.105 291.480,75.600 291.885,75.600 292.068 C 75.600 292.250,76.005 292.403,76.500 292.406 C 77.228 292.411,77.285 292.486,76.800 292.800 C 76.312 293.115,76.363 293.189,77.073 293.194 C 77.591 293.198,78.049 293.525,78.200 294.000 C 78.340 294.440,78.757 294.801,79.127 294.802 C 79.497 294.803,80.375 295.343,81.078 296.002 C 81.781 296.661,82.546 297.200,82.778 297.200 C 83.010 297.200,83.200 297.380,83.200 297.600 C 83.200 297.820,83.494 298.000,83.853 298.000 C 84.212 298.000,84.809 298.349,85.178 298.775 C 85.548 299.201,86.102 299.606,86.410 299.675 C 86.717 299.744,87.325 300.115,87.760 300.500 C 88.195 300.885,88.787 301.200,89.075 301.200 C 89.364 301.200,89.600 301.350,89.600 301.532 C 89.600 301.715,90.095 302.120,90.700 302.432 C 91.305 302.745,92.149 303.315,92.575 303.700 C 93.002 304.085,93.587 304.400,93.875 304.400 C 94.164 304.400,94.400 304.580,94.400 304.800 C 94.400 305.020,94.738 305.200,95.151 305.200 C 95.564 305.200,96.126 305.470,96.400 305.800 C 96.674 306.130,97.132 306.400,97.418 306.400 C 97.704 306.400,98.447 306.825,99.069 307.345 C 99.691 307.865,100.605 308.417,101.100 308.572 C 101.595 308.727,102.000 309.022,102.000 309.227 C 102.000 309.432,102.450 309.600,103.000 309.600 C 103.550 309.600,104.000 309.780,104.000 310.000 C 104.000 310.220,104.270 310.400,104.600 310.400 C 104.930 310.400,105.200 310.580,105.200 310.800 C 105.200 311.020,105.560 311.200,106.000 311.200 C 106.440 311.200,106.800 311.380,106.800 311.600 C 106.800 311.820,107.160 312.000,107.600 312.000 C 108.040 312.000,108.400 312.180,108.400 312.400 C 108.400 312.620,108.760 312.800,109.200 312.800 C 109.640 312.800,110.001 312.935,110.003 313.100 C 110.007 313.460,111.944 314.400,112.682 314.400 C 113.109 314.400,113.186 308.518,113.102 282.360 L 113.000 250.319 111.400 249.813 C 110.520 249.534,108.450 248.906,106.800 248.417 C 105.150 247.928,102.000 246.904,99.800 246.140 C 97.600 245.377,94.945 244.466,93.900 244.116 C 91.573 243.335,91.572 243.488,93.942 237.200 C 96.180 231.264,95.500 231.498,103.000 234.089 C 114.156 237.943,114.800 238.071,114.800 236.429 C 114.800 234.091,118.606 224.650,121.504 219.800 C 125.457 213.184,136.732 201.600,139.218 201.600 C 139.996 201.600,139.421 200.213,138.595 200.100 C 137.451 199.942,133.606 199.161,132.200 198.800 C 131.540 198.631,129.920 198.264,128.600 197.986 C 127.280 197.708,125.210 197.221,124.000 196.903 C 122.790 196.585,121.080 196.175,120.200 195.992 C 119.320 195.810,117.790 195.402,116.800 195.088 C 115.810 194.773,114.280 194.320,113.400 194.081 C 108.280 192.692,92.273 187.329,92.128 186.954 C 91.908 186.384,95.552 176.286,96.103 175.940 C 96.330 175.798,98.785 176.453,101.558 177.397 C 106.306 179.013,109.153 179.920,115.800 181.935 C 118.881 182.869,125.581 184.646,128.400 185.276 C 129.390 185.498,130.830 185.833,131.600 186.021 C 135.489 186.972,137.334 187.367,142.800 188.417 C 156.164 190.983,156.086 190.987,160.753 187.647 C 178.696 174.807,198.041 155.392,214.403 133.800 C 218.592 128.272,230.602 110.588,231.111 109.200 C 231.231 108.870,231.640 108.150,232.018 107.600 C 232.397 107.050,233.064 105.970,233.502 105.200 C 233.939 104.430,235.179 102.270,236.256 100.400 C 237.333 98.530,238.661 96.100,239.207 95.000 C 239.753 93.900,240.380 92.870,240.600 92.712 C 240.820 92.554,240.415 92.306,239.700 92.162 C 238.985 92.018,238.400 91.743,238.400 91.550 C 238.400 91.358,238.130 91.200,237.800 91.200 C 237.470 91.200,237.200 91.020,237.200 90.800 C 237.200 90.580,236.840 90.400,236.400 90.400 C 235.960 90.400,235.600 90.220,235.600 90.000 C 235.600 89.780,235.335 89.600,235.012 89.600 C 234.689 89.600,233.783 89.240,233.000 88.800 C 232.217 88.360,231.221 88.000,230.788 88.000 C 230.355 88.000,230.000 87.820,230.000 87.600 C 230.000 87.380,229.640 87.200,229.200 87.200 C 228.760 87.200,228.400 87.020,228.400 86.800 C 228.400 86.580,228.051 86.400,227.624 86.400 C 227.197 86.400,226.736 86.220,226.600 86.000 C 226.464 85.780,225.913 85.600,225.376 85.600 C 224.839 85.600,224.400 85.420,224.400 85.200 C 224.400 84.980,224.051 84.800,223.624 84.800 C 223.197 84.800,222.736 84.620,222.600 84.400 C 222.464 84.180,222.003 84.000,221.576 84.000 C 221.149 84.000,220.800 83.840,220.800 83.644 C 220.800 83.448,220.215 83.186,219.500 83.063 C 216.397 82.526,215.387 82.270,215.191 81.968 C 215.076 81.791,214.131 81.602,213.091 81.548 C 212.051 81.495,211.200 81.299,211.200 81.113 C 211.200 80.928,206.700 80.793,201.200 80.814 C 195.282 80.836,191.200 81.004,191.200 81.226 " stroke="none" fill="#83e3e3" fill-rule="evenodd"></path><path id="path2" d="M20.800 114.000 C 20.800 114.220,20.095 114.400,19.233 114.400 C 18.372 114.400,17.607 114.572,17.533 114.782 C 17.460 114.993,16.737 115.209,15.926 115.263 C 15.115 115.316,14.541 115.504,14.649 115.680 C 14.846 115.999,14.251 116.153,13.300 116.030 C 13.025 115.994,12.800 116.109,12.800 116.285 C 12.800 116.461,12.259 116.844,11.598 117.137 C 10.936 117.430,10.497 117.834,10.621 118.035 C 10.746 118.236,10.549 118.400,10.184 118.400 C 9.819 118.400,9.017 118.940,8.400 119.600 C 7.783 120.260,6.981 120.800,6.616 120.800 C 6.251 120.800,6.057 120.968,6.184 121.174 C 6.311 121.380,5.962 122.002,5.408 122.556 C 4.853 123.110,4.400 123.762,4.400 124.005 C 4.400 124.248,4.220 124.336,4.000 124.200 C 3.780 124.064,3.600 124.233,3.600 124.576 C 3.600 124.919,3.285 125.547,2.900 125.971 C 1.431 127.589,1.200 127.995,1.200 128.950 C 1.200 129.491,0.975 130.008,0.700 130.100 C -0.199 130.399,-0.012 221.600,0.887 221.600 C 1.059 221.600,1.200 222.050,1.200 222.600 C 1.200 223.150,1.380 223.600,1.600 223.600 C 1.820 223.600,2.000 223.917,2.000 224.304 C 2.000 224.691,2.360 225.232,2.800 225.507 C 3.240 225.782,3.600 226.251,3.600 226.550 C 3.600 227.244,7.767 231.600,8.432 231.600 C 8.708 231.600,8.822 231.711,8.686 231.848 C 8.382 232.151,9.379 233.200,9.971 233.200 C 10.207 233.200,10.400 233.380,10.400 233.600 C 10.400 233.820,10.750 234.000,11.177 234.000 C 11.605 234.000,12.212 234.368,12.527 234.817 C 12.841 235.266,13.257 235.605,13.449 235.569 C 14.270 235.419,14.829 235.629,14.600 236.000 C 14.464 236.220,14.644 236.400,15.000 236.400 C 15.356 236.400,15.536 236.580,15.400 236.800 C 15.264 237.020,15.523 237.200,15.976 237.200 C 16.429 237.200,16.800 237.401,16.800 237.647 C 16.800 237.896,17.153 238.001,17.600 237.884 C 18.120 237.748,18.400 237.872,18.400 238.237 C 18.400 238.547,18.577 238.800,18.792 238.800 C 19.008 238.800,20.169 239.430,21.373 240.200 C 22.577 240.970,23.840 241.600,24.181 241.600 C 24.521 241.600,24.800 241.780,24.800 242.000 C 24.800 242.220,25.070 242.400,25.400 242.400 C 25.997 242.400,26.406 242.687,28.500 244.573 C 29.105 245.118,29.600 245.364,29.600 245.121 C 29.600 244.877,29.936 245.065,30.347 245.539 C 30.758 246.012,31.305 246.400,31.564 246.400 C 31.822 246.400,32.420 246.760,32.892 247.200 C 33.364 247.640,33.987 248.000,34.275 248.000 C 34.564 248.000,34.800 248.191,34.800 248.424 C 34.800 248.657,34.965 248.745,35.168 248.620 C 35.370 248.495,35.807 248.664,36.139 248.996 C 36.471 249.328,37.071 249.603,37.471 249.606 C 38.088 249.611,38.108 249.672,37.600 250.000 C 37.109 250.317,37.155 250.389,37.851 250.394 C 38.319 250.397,38.924 250.668,39.196 250.996 C 39.468 251.323,39.844 251.496,40.032 251.380 C 40.220 251.264,40.603 251.536,40.883 251.984 C 41.163 252.433,41.632 252.800,41.925 252.800 C 42.218 252.800,42.729 253.072,43.061 253.404 C 43.393 253.736,43.858 253.888,44.094 253.742 C 44.330 253.596,44.412 253.657,44.275 253.878 C 44.139 254.099,44.516 254.531,45.114 254.839 C 45.711 255.147,46.290 255.493,46.400 255.609 C 46.510 255.725,47.455 256.265,48.500 256.809 C 49.545 257.353,50.400 257.953,50.400 258.142 C 50.400 258.331,50.679 258.378,51.021 258.247 C 51.377 258.111,51.537 258.178,51.397 258.405 C 51.263 258.622,51.523 258.800,51.976 258.800 C 52.429 258.800,52.800 258.980,52.800 259.200 C 52.800 259.420,53.120 259.600,53.512 259.600 C 53.903 259.600,54.483 259.960,54.800 260.400 C 55.888 261.910,56.000 261.181,56.000 252.557 C 56.000 245.263,55.912 243.948,55.433 244.132 C 55.121 244.252,54.763 244.079,54.636 243.749 C 54.509 243.419,54.224 243.261,54.003 243.398 C 53.781 243.535,53.600 243.457,53.600 243.224 C 53.600 242.991,53.330 242.800,53.000 242.800 C 52.670 242.800,52.040 242.440,51.600 242.000 C 51.160 241.560,50.530 241.200,50.200 241.200 C 49.870 241.200,49.600 241.020,49.600 240.800 C 49.600 240.580,49.330 240.400,49.000 240.400 C 48.670 240.400,48.400 240.220,48.400 240.000 C 48.400 239.780,48.130 239.600,47.800 239.600 C 47.470 239.600,47.200 239.420,47.200 239.200 C 47.200 238.980,46.922 238.800,46.583 238.800 C 46.244 238.800,45.580 238.440,45.108 238.000 C 44.636 237.560,43.923 237.200,43.525 237.200 C 43.126 237.200,42.800 237.020,42.800 236.800 C 42.800 236.580,42.530 236.400,42.200 236.400 C 41.870 236.400,41.600 236.220,41.600 236.000 C 41.600 235.780,41.319 235.600,40.976 235.600 C 40.633 235.600,40.464 235.420,40.600 235.200 C 40.736 234.980,40.567 234.800,40.224 234.800 C 39.881 234.800,39.600 234.620,39.600 234.400 C 39.600 234.180,39.274 234.000,38.875 234.000 C 38.477 234.000,37.764 233.640,37.292 233.200 C 36.820 232.760,36.246 232.400,36.017 232.400 C 35.788 232.400,35.600 232.220,35.600 232.000 C 35.600 231.780,35.240 231.600,34.800 231.600 C 34.360 231.600,34.000 231.420,34.000 231.200 C 34.000 230.980,33.680 230.800,33.288 230.800 C 32.897 230.800,32.317 230.440,32.000 230.000 C 31.683 229.560,31.103 229.200,30.712 229.200 C 30.320 229.200,30.000 229.050,30.000 228.868 C 30.000 228.685,29.505 228.280,28.900 227.968 C 28.295 227.655,27.560 227.173,27.268 226.896 C 26.975 226.619,26.570 226.495,26.368 226.620 C 26.165 226.745,26.000 226.646,26.000 226.400 C 26.000 226.154,25.820 226.064,25.600 226.200 C 25.380 226.336,25.200 226.257,25.200 226.024 C 25.200 225.791,24.930 225.600,24.600 225.600 C 24.270 225.600,24.000 225.420,24.000 225.200 C 24.000 224.980,23.730 224.800,23.400 224.800 C 23.070 224.800,22.800 224.620,22.800 224.400 C 22.800 224.180,22.530 224.000,22.200 224.000 C 21.870 224.000,21.600 223.820,21.600 223.600 C 21.600 223.380,21.255 223.200,20.833 223.200 C 20.412 223.200,20.003 223.010,19.926 222.778 C 19.849 222.546,19.498 222.314,19.148 222.263 C 18.237 222.129,15.200 219.052,15.200 218.262 C 15.200 217.898,15.020 217.600,14.800 217.600 C 14.580 217.600,14.400 217.229,14.400 216.776 C 14.400 216.323,14.220 216.064,14.000 216.200 C 13.753 216.352,13.600 215.671,13.600 214.424 C 13.600 213.311,13.420 212.400,13.200 212.400 C 12.936 212.400,12.800 199.859,12.800 175.576 C 12.800 146.234,12.902 138.810,13.300 139.035 C 13.700 139.261,13.700 139.210,13.300 138.779 C 12.703 138.136,12.633 137.450,13.200 137.800 C 13.439 137.947,13.600 137.463,13.600 136.600 C 13.600 135.737,13.761 135.253,14.000 135.400 C 14.220 135.536,14.400 135.287,14.400 134.847 C 14.400 134.407,14.580 133.936,14.800 133.800 C 15.020 133.664,15.200 133.187,15.200 132.739 C 15.200 132.262,15.531 131.839,16.000 131.716 C 16.440 131.601,16.800 131.270,16.800 130.980 C 16.800 130.691,17.160 130.340,17.600 130.200 C 18.040 130.060,18.400 129.778,18.400 129.573 C 18.400 129.368,18.760 129.200,19.200 129.200 C 19.640 129.200,20.001 129.065,20.003 128.900 C 20.005 128.735,20.455 128.392,21.004 128.137 C 21.552 127.883,21.900 127.838,21.777 128.037 C 21.654 128.237,21.743 128.400,21.976 128.400 C 22.209 128.400,22.400 128.220,22.400 128.000 C 22.400 127.780,23.300 127.600,24.400 127.600 C 25.500 127.600,26.400 127.780,26.400 128.000 C 26.400 128.220,26.780 128.400,27.246 128.400 C 28.182 128.400,30.964 129.812,32.173 130.900 C 32.601 131.285,33.288 131.600,33.699 131.600 C 34.111 131.600,34.358 131.744,34.249 131.920 C 34.141 132.096,34.419 132.469,34.868 132.749 C 35.538 133.168,35.635 133.164,35.411 132.730 C 35.262 132.438,35.497 132.605,35.934 133.100 C 36.371 133.595,37.014 134.000,37.364 134.000 C 37.714 134.000,38.000 134.180,38.000 134.400 C 38.000 134.620,38.371 134.800,38.824 134.800 C 39.277 134.800,39.536 134.980,39.400 135.200 C 39.264 135.420,39.433 135.600,39.776 135.600 C 40.119 135.600,40.400 135.788,40.400 136.018 C 40.400 136.247,40.653 136.382,40.962 136.318 C 41.271 136.253,41.856 136.560,42.262 137.000 C 43.277 138.100,45.419 139.241,45.808 138.889 C 45.984 138.730,46.007 138.812,45.858 139.071 C 45.701 139.346,45.924 139.649,46.392 139.797 C 46.834 139.938,47.463 140.320,47.791 140.648 C 48.118 140.975,48.794 141.322,49.292 141.418 C 49.790 141.514,50.258 141.774,50.332 141.996 C 50.406 142.218,50.812 142.400,51.233 142.400 C 51.655 142.400,52.000 142.552,52.000 142.737 C 52.000 142.923,52.805 143.488,53.788 143.994 C 54.772 144.500,55.481 145.068,55.365 145.257 C 55.248 145.446,55.343 145.600,55.576 145.600 C 55.847 145.600,56.000 144.109,56.000 141.468 C 56.000 136.824,55.866 137.028,59.600 135.992 C 62.758 135.115,64.000 134.647,64.000 134.335 C 64.000 133.758,62.247 132.400,61.501 132.400 C 61.032 132.400,60.861 132.226,61.042 131.932 C 61.233 131.623,61.118 131.546,60.702 131.706 C 60.307 131.857,59.799 131.583,59.341 130.974 C 58.939 130.438,58.460 130.000,58.277 130.000 C 58.094 130.000,57.174 129.470,56.233 128.823 C 55.293 128.176,54.045 127.526,53.461 127.380 C 52.878 127.233,52.400 126.953,52.400 126.757 C 52.400 126.560,52.170 126.400,51.888 126.400 C 51.607 126.400,51.117 126.040,50.800 125.600 C 50.483 125.160,49.903 124.800,49.512 124.800 C 49.120 124.800,48.800 124.620,48.800 124.400 C 48.800 124.180,48.642 124.045,48.449 124.100 C 48.005 124.226,44.825 122.303,44.811 121.900 C 44.805 121.735,44.440 121.600,44.000 121.600 C 43.560 121.600,43.200 121.420,43.200 121.200 C 43.200 120.980,42.795 120.797,42.300 120.794 C 41.572 120.789,41.515 120.714,42.000 120.400 C 42.513 120.069,42.498 120.011,41.900 120.006 C 41.515 120.003,41.200 119.820,41.200 119.600 C 41.200 119.380,40.930 119.200,40.600 119.200 C 40.270 119.200,40.000 119.026,40.000 118.813 C 40.000 118.599,39.730 118.529,39.400 118.655 C 39.020 118.801,38.800 118.650,38.800 118.243 C 38.800 117.867,38.468 117.600,38.000 117.600 C 37.560 117.600,37.200 117.409,37.200 117.176 C 37.200 116.943,37.035 116.855,36.832 116.980 C 36.630 117.105,36.193 116.936,35.861 116.604 C 35.529 116.272,34.974 116.000,34.629 116.000 C 34.283 116.000,34.000 115.820,34.000 115.600 C 34.000 115.380,33.676 115.200,33.280 115.200 C 32.884 115.200,32.318 114.975,32.021 114.700 C 31.584 114.294,31.542 114.312,31.800 114.800 C 32.058 115.288,32.016 115.306,31.579 114.900 C 31.282 114.625,30.446 114.400,29.720 114.400 C 28.994 114.400,28.400 114.220,28.400 114.000 C 28.400 113.761,26.867 113.600,24.600 113.600 C 22.333 113.600,20.800 113.761,20.800 114.000 M371.786 114.023 C 371.658 114.230,370.931 114.400,370.172 114.400 C 368.822 114.400,365.405 115.745,364.971 116.446 C 364.851 116.641,364.313 116.800,363.776 116.800 C 363.239 116.800,362.800 116.936,362.800 117.102 C 362.800 117.269,362.215 117.660,361.500 117.972 C 360.785 118.284,359.909 118.868,359.553 119.270 C 359.197 119.671,358.652 120.000,358.341 120.000 C 358.031 120.000,357.517 120.360,357.200 120.800 C 356.883 121.240,356.303 121.600,355.912 121.600 C 355.520 121.600,355.200 121.780,355.200 122.000 C 355.200 122.220,354.795 122.403,354.300 122.406 C 353.572 122.411,353.515 122.486,354.000 122.800 C 354.485 123.114,354.428 123.189,353.700 123.194 C 353.205 123.197,352.800 123.380,352.800 123.600 C 352.800 123.820,352.564 124.000,352.275 124.000 C 351.987 124.000,351.395 124.315,350.960 124.700 C 350.525 125.085,349.906 125.459,349.584 125.530 C 349.263 125.602,348.940 125.827,348.867 126.030 C 348.793 126.234,348.478 126.400,348.167 126.400 C 347.855 126.400,347.600 126.560,347.600 126.757 C 347.600 126.953,347.116 127.235,346.524 127.383 C 345.426 127.659,343.107 129.118,342.867 129.686 C 342.793 129.858,342.503 130.000,342.221 130.000 C 341.940 130.000,341.223 130.486,340.630 131.079 C 340.036 131.673,339.194 132.213,338.759 132.279 C 335.764 132.736,336.182 134.361,339.600 135.547 C 344.317 137.183,344.000 136.756,344.000 141.468 C 344.000 145.689,344.186 146.207,345.200 144.800 C 345.517 144.360,346.097 144.000,346.488 144.000 C 346.880 144.000,347.200 143.820,347.200 143.600 C 347.200 143.380,347.520 143.200,347.912 143.200 C 348.303 143.200,348.883 142.840,349.200 142.400 C 349.517 141.960,350.069 141.600,350.426 141.600 C 350.784 141.600,351.387 141.256,351.767 140.836 C 352.148 140.416,352.912 139.958,353.466 139.819 C 354.096 139.661,354.395 139.363,354.264 139.021 C 354.117 138.640,354.343 138.508,355.016 138.582 C 355.545 138.640,355.882 138.533,355.765 138.344 C 355.648 138.155,355.851 138.000,356.215 138.000 C 356.886 138.000,359.289 136.490,359.533 135.914 C 359.607 135.742,359.877 135.600,360.133 135.600 C 360.390 135.599,361.118 135.153,361.752 134.608 C 362.386 134.063,363.028 133.694,363.179 133.787 C 363.331 133.881,363.707 133.607,364.015 133.179 C 364.324 132.750,364.897 132.400,365.288 132.400 C 365.680 132.400,366.000 132.220,366.000 132.000 C 366.000 131.780,366.236 131.600,366.525 131.600 C 366.813 131.600,367.436 131.240,367.908 130.800 C 368.380 130.360,368.965 130.000,369.207 130.000 C 369.449 130.000,369.555 129.850,369.441 129.667 C 369.328 129.483,369.497 129.303,369.818 129.267 C 370.138 129.230,370.670 129.170,371.000 129.133 C 371.330 129.097,371.600 128.917,371.600 128.733 C 371.600 128.550,372.050 128.400,372.600 128.400 C 373.150 128.400,373.600 128.220,373.600 128.000 C 373.600 127.422,377.340 127.507,377.979 128.100 C 378.383 128.475,378.449 128.478,378.242 128.111 C 377.876 127.462,381.221 129.207,382.041 130.093 C 382.393 130.474,382.798 130.669,382.941 130.526 C 383.083 130.383,383.200 130.567,383.200 130.933 C 383.200 131.300,383.500 131.600,383.867 131.600 C 384.233 131.600,384.417 131.717,384.274 131.859 C 384.131 132.002,384.328 132.407,384.710 132.759 C 385.699 133.670,386.383 135.190,386.483 136.700 C 386.531 137.415,386.757 138.003,386.985 138.006 C 387.213 138.009,387.130 138.187,386.800 138.400 C 386.400 138.658,386.367 138.790,386.700 138.794 C 387.263 138.801,387.463 214.798,386.900 214.802 C 386.735 214.803,386.550 215.658,386.490 216.702 C 386.429 217.746,386.204 218.660,385.990 218.733 C 385.775 218.807,385.600 219.178,385.600 219.558 C 385.600 219.938,385.240 220.636,384.800 221.108 C 384.360 221.580,384.000 222.184,384.000 222.450 C 384.000 222.716,383.894 222.827,383.764 222.697 C 383.634 222.567,382.916 223.089,382.170 223.858 C 381.424 224.626,380.630 225.142,380.407 225.004 C 380.183 224.866,380.000 224.943,380.000 225.176 C 380.000 225.409,379.719 225.600,379.376 225.600 C 379.033 225.600,378.852 225.760,378.973 225.956 C 379.094 226.152,378.565 226.430,377.796 226.574 C 376.948 226.733,376.400 227.069,376.400 227.428 C 376.400 227.765,375.886 228.123,375.206 228.259 C 374.550 228.390,374.111 228.655,374.230 228.849 C 374.350 229.042,374.026 229.200,373.512 229.200 C 372.997 229.200,372.317 229.560,372.000 230.000 C 371.683 230.440,371.093 230.800,370.688 230.800 C 370.284 230.800,370.064 230.980,370.200 231.200 C 370.336 231.420,370.167 231.600,369.824 231.600 C 369.481 231.600,369.200 231.780,369.200 232.000 C 369.200 232.220,368.922 232.400,368.583 232.400 C 368.244 232.400,367.580 232.760,367.108 233.200 C 366.636 233.640,366.002 234.000,365.701 234.000 C 365.399 234.000,365.264 234.180,365.400 234.400 C 365.536 234.620,365.412 234.804,365.124 234.809 C 364.836 234.814,364.150 235.170,363.600 235.600 C 363.050 236.030,362.285 236.386,361.900 236.391 C 361.515 236.396,361.200 236.536,361.200 236.702 C 361.200 236.869,360.659 237.244,359.998 237.537 C 359.336 237.830,358.897 238.234,359.021 238.435 C 359.226 238.765,358.672 238.969,357.900 238.847 C 357.735 238.821,357.600 238.936,357.600 239.102 C 357.600 239.269,357.059 239.644,356.398 239.937 C 355.736 240.230,355.297 240.634,355.421 240.835 C 355.546 241.036,355.226 241.200,354.712 241.200 C 354.197 241.200,353.517 241.560,353.200 242.000 C 352.883 242.440,352.375 242.800,352.072 242.800 C 351.467 242.800,346.681 245.618,346.467 246.100 C 346.393 246.265,346.065 246.400,345.738 246.400 C 344.119 246.400,343.971 247.220,344.016 255.985 C 344.059 264.467,344.151 265.056,345.200 263.600 C 345.517 263.160,346.107 262.800,346.512 262.800 C 346.916 262.800,347.136 262.620,347.000 262.400 C 346.864 262.180,347.141 262.000,347.616 262.000 C 348.091 262.000,349.001 261.441,349.640 260.758 C 350.278 260.074,350.800 259.742,350.800 260.019 C 350.800 260.312,351.093 260.189,351.500 259.725 C 351.885 259.287,352.664 258.813,353.231 258.674 C 353.798 258.534,354.756 257.962,355.359 257.403 C 355.962 256.844,356.651 256.508,356.889 256.655 C 357.128 256.803,357.219 256.754,357.091 256.547 C 356.963 256.339,357.430 255.917,358.129 255.607 C 358.828 255.298,359.749 254.720,360.175 254.323 C 360.601 253.925,361.456 253.376,362.075 253.103 C 362.694 252.829,363.200 252.469,363.200 252.302 C 363.200 252.136,363.470 252.000,363.800 252.000 C 364.130 252.000,364.400 251.820,364.400 251.600 C 364.400 251.380,364.678 251.200,365.017 251.200 C 365.356 251.200,365.994 250.864,366.434 250.454 C 366.875 250.043,368.076 249.278,369.104 248.754 C 370.132 248.229,371.448 247.305,372.030 246.700 C 372.611 246.095,373.472 245.600,373.943 245.600 C 374.414 245.600,374.800 245.448,374.800 245.263 C 374.800 245.077,375.610 244.509,376.600 244.000 C 377.590 243.491,378.400 242.923,378.400 242.737 C 378.400 242.552,378.760 242.400,379.200 242.400 C 379.640 242.400,380.000 242.238,380.000 242.039 C 380.000 241.841,380.495 241.489,381.100 241.258 C 382.583 240.692,384.533 239.503,384.895 238.945 C 385.057 238.694,385.649 238.374,386.211 238.233 C 386.773 238.092,387.125 237.802,386.993 237.588 C 386.861 237.375,387.213 237.200,387.776 237.200 C 388.339 237.200,388.800 237.050,388.800 236.868 C 388.800 236.685,389.244 236.298,389.786 236.007 C 390.329 235.717,390.678 235.327,390.563 235.140 C 390.447 234.953,390.547 234.800,390.784 234.800 C 391.384 234.800,396.397 229.730,396.413 229.107 C 396.432 228.332,397.437 227.175,397.804 227.506 C 397.982 227.668,398.008 227.590,397.860 227.332 C 397.713 227.075,397.864 226.593,398.196 226.261 C 398.528 225.929,398.800 225.320,398.800 224.909 C 398.800 224.497,399.025 223.935,399.300 223.660 C 399.694 223.266,399.800 213.337,399.800 176.713 C 399.800 139.912,399.696 130.232,399.300 130.100 C 399.025 130.008,398.800 129.575,398.800 129.138 C 398.800 128.701,398.528 128.071,398.196 127.739 C 397.864 127.407,397.712 126.942,397.858 126.706 C 398.015 126.451,397.936 126.393,397.662 126.562 C 397.388 126.731,397.200 126.593,397.200 126.224 C 397.200 125.881,397.020 125.600,396.800 125.600 C 396.580 125.600,396.400 125.229,396.400 124.776 C 396.400 124.323,396.220 124.064,396.000 124.200 C 395.780 124.336,395.600 124.253,395.600 124.015 C 395.600 123.350,390.044 117.926,389.626 118.184 C 389.423 118.309,389.143 118.049,389.002 117.606 C 388.779 116.904,387.830 116.561,386.670 116.763 C 386.489 116.794,386.455 116.635,386.594 116.410 C 386.733 116.184,386.567 116.000,386.224 116.000 C 385.881 116.000,385.600 115.820,385.600 115.600 C 385.600 115.380,384.970 115.200,384.200 115.200 C 383.430 115.200,382.800 115.020,382.800 114.800 C 382.800 114.580,381.889 114.400,380.776 114.400 C 379.663 114.400,378.836 114.265,378.937 114.100 C 379.039 113.935,377.524 113.765,375.570 113.723 C 373.617 113.681,371.914 113.816,371.786 114.023 M302.000 176.353 C 300.092 177.379,299.540 177.600,298.885 177.600 C 298.486 177.600,297.989 177.749,297.780 177.930 C 297.571 178.112,296.590 178.490,295.600 178.769 C 294.610 179.049,293.487 179.440,293.105 179.639 C 292.723 179.838,292.078 180.000,291.672 180.000 C 291.266 180.000,290.808 180.126,290.654 180.279 C 290.501 180.432,289.256 180.870,287.888 181.252 C 286.519 181.633,284.140 182.299,282.600 182.732 C 277.182 184.252,271.779 185.661,269.800 186.069 C 268.700 186.295,267.080 186.644,266.200 186.843 C 258.021 188.694,247.570 190.518,238.800 191.627 C 217.265 194.350,188.896 194.659,167.800 192.400 C 166.040 192.211,163.060 191.896,161.177 191.700 C 159.294 191.503,157.543 191.212,157.286 191.053 C 157.019 190.888,155.520 191.639,153.808 192.795 C 152.152 193.912,148.710 196.062,146.160 197.574 C 140.961 200.654,140.911 200.429,147.000 201.389 C 156.715 202.920,160.337 203.423,165.600 203.968 C 184.603 205.937,199.261 206.430,214.000 205.596 C 223.396 205.064,235.841 203.960,241.000 203.201 C 242.320 203.007,244.840 202.647,246.600 202.401 C 251.412 201.731,260.938 200.062,265.000 199.179 C 273.817 197.262,276.259 196.693,277.119 196.358 C 277.624 196.161,278.469 196.000,278.995 196.000 C 279.522 196.000,280.064 195.820,280.200 195.600 C 280.336 195.380,280.878 195.200,281.405 195.200 C 281.931 195.200,282.776 195.039,283.281 194.842 C 283.787 194.645,285.010 194.260,286.000 193.988 C 289.140 193.123,290.577 192.698,291.400 192.390 C 291.840 192.226,293.010 191.873,294.000 191.607 C 294.990 191.340,296.113 190.960,296.495 190.761 C 296.877 190.562,297.541 190.400,297.971 190.400 C 298.401 190.400,298.864 190.220,299.000 190.000 C 299.136 189.780,299.651 189.600,300.144 189.600 C 300.637 189.600,301.211 189.452,301.420 189.272 C 301.629 189.092,303.105 188.521,304.700 188.004 C 307.706 187.030,308.119 186.520,307.213 184.895 C 307.000 184.513,306.559 183.390,306.235 182.400 C 304.156 176.064,303.713 175.432,302.000 176.353 M295.200 235.043 C 291.130 236.438,287.483 237.584,287.095 237.590 C 286.707 237.595,286.077 237.762,285.695 237.961 C 285.313 238.160,284.190 238.538,283.200 238.803 C 282.210 239.067,280.987 239.445,280.481 239.642 C 279.976 239.839,279.131 240.000,278.605 240.000 C 278.078 240.000,277.536 240.180,277.400 240.400 C 277.264 240.620,276.544 240.800,275.800 240.800 C 275.056 240.800,274.336 240.980,274.200 241.200 C 274.064 241.420,273.344 241.600,272.600 241.600 C 271.856 241.600,271.148 241.761,271.026 241.958 C 270.905 242.155,270.129 242.413,269.303 242.532 C 268.476 242.651,266.900 242.950,265.800 243.196 C 264.700 243.443,263.170 243.736,262.400 243.847 C 261.630 243.958,260.640 244.205,260.200 244.394 C 259.760 244.584,258.680 244.843,257.800 244.970 C 256.920 245.098,255.210 245.374,254.000 245.585 C 242.243 247.632,234.800 248.577,221.800 249.672 C 214.588 250.280,185.947 250.279,178.400 249.671 C 165.973 248.670,155.142 247.294,146.200 245.580 C 144.880 245.327,142.945 244.958,141.900 244.760 C 137.236 243.877,133.697 243.121,130.800 242.389 C 129.810 242.139,128.324 241.840,127.497 241.725 C 126.671 241.610,125.895 241.355,125.774 241.158 C 125.652 240.961,125.111 240.800,124.571 240.800 C 124.031 240.800,123.277 240.636,122.895 240.435 C 122.513 240.235,121.120 239.845,119.800 239.568 C 118.480 239.292,117.185 238.902,116.922 238.702 C 114.948 237.200,113.390 241.564,113.687 247.765 L 113.800 250.130 116.400 250.879 C 117.830 251.291,119.720 251.790,120.600 251.988 C 121.480 252.186,122.920 252.541,123.800 252.775 C 126.111 253.391,132.331 254.850,134.200 255.214 C 135.080 255.386,136.880 255.741,138.200 256.003 C 172.992 262.920,208.789 264.005,243.200 259.185 C 244.630 258.985,246.970 258.657,248.400 258.456 C 251.768 257.984,253.820 257.636,255.800 257.203 C 256.680 257.011,258.570 256.651,260.000 256.403 C 261.430 256.155,263.230 255.796,264.000 255.606 C 264.770 255.415,266.480 255.039,267.800 254.768 C 272.553 253.796,286.103 250.298,291.000 248.781 C 292.540 248.304,294.297 247.822,294.905 247.711 C 295.513 247.599,296.108 247.349,296.229 247.154 C 296.349 246.959,296.799 246.800,297.229 246.800 C 297.659 246.800,298.323 246.638,298.705 246.439 C 299.087 246.240,300.210 245.848,301.200 245.567 C 302.190 245.286,303.180 244.934,303.400 244.786 C 303.620 244.638,304.655 244.271,305.700 243.971 C 307.936 243.329,307.965 243.178,306.560 239.398 C 305.988 237.859,305.193 235.700,304.793 234.600 C 303.856 232.019,304.051 232.010,295.200 235.043 " stroke="none" fill="#2bbcbb" fill-rule="evenodd"></path><path id="path3" d="M59.600 136.400 C 59.067 136.745,59.067 136.788,59.600 136.788 C 59.930 136.788,60.470 136.613,60.800 136.400 C 61.333 136.055,61.333 136.012,60.800 136.012 C 60.470 136.012,59.930 136.187,59.600 136.400 M96.103 175.940 C 95.552 176.286,91.908 186.384,92.128 186.954 C 92.273 187.329,108.280 192.692,113.400 194.081 C 114.280 194.320,115.810 194.773,116.800 195.088 C 117.790 195.402,119.320 195.811,120.200 195.995 C 121.080 196.179,122.970 196.624,124.400 196.984 C 127.236 197.697,129.031 198.111,132.400 198.830 C 133.610 199.088,135.122 199.457,135.760 199.650 C 136.398 199.842,137.345 200.000,137.865 200.000 C 138.385 200.000,139.174 200.225,139.618 200.500 C 140.212 200.868,140.500 200.881,140.712 200.546 C 140.870 200.297,141.675 199.712,142.500 199.246 C 143.325 198.781,144.618 198.050,145.373 197.622 C 146.863 196.778,150.698 194.354,152.565 193.077 C 153.206 192.638,154.466 191.859,155.365 191.344 L 157.000 190.410 155.600 190.404 C 153.955 190.397,145.689 189.033,138.400 187.567 C 136.617 187.208,134.306 186.683,131.600 186.021 C 130.830 185.833,129.390 185.498,128.400 185.276 C 121.810 183.802,111.405 180.748,101.558 177.397 C 98.785 176.453,96.330 175.798,96.103 175.940 M95.859 232.305 C 95.439 232.984,92.000 242.524,92.000 243.008 C 92.000 243.267,92.855 243.765,93.900 244.116 C 94.945 244.466,97.600 245.377,99.800 246.140 C 102.000 246.904,105.150 247.928,106.800 248.417 C 108.450 248.906,110.571 249.552,111.514 249.853 C 112.457 250.154,113.267 250.400,113.314 250.400 C 113.361 250.400,113.332 249.455,113.249 248.300 C 113.070 245.827,113.931 238.820,114.502 238.100 C 114.787 237.740,114.703 237.600,114.201 237.600 C 113.443 237.600,110.981 236.829,103.000 234.094 C 96.799 231.969,96.165 231.810,95.859 232.305 " stroke="none" fill="#63cccc" fill-rule="evenodd"></path><path id="path4" d="M64.000 134.256 C 64.000 134.470,63.505 134.854,62.900 135.108 C 61.899 135.528,61.890 135.549,62.800 135.340 C 63.985 135.068,64.655 134.522,64.273 134.140 C 64.123 133.990,64.000 134.042,64.000 134.256 M336.406 134.500 C 336.403 134.885,336.586 135.200,336.813 135.200 C 337.040 135.200,338.653 135.750,340.398 136.423 L 343.570 137.646 343.703 141.123 L 343.835 144.600 343.918 140.968 C 344.012 136.822,344.292 137.174,339.600 135.547 C 338.170 135.050,336.868 134.455,336.706 134.222 C 336.532 133.972,336.410 134.084,336.406 134.500 M59.000 136.096 C 55.908 137.155,55.993 137.025,56.073 140.568 L 56.147 143.800 56.373 140.600 L 56.600 137.400 59.200 136.520 C 60.630 136.036,61.440 135.650,61.000 135.663 C 60.560 135.675,59.660 135.870,59.000 136.096 M301.000 176.400 C 300.120 176.807,299.109 177.154,298.753 177.170 C 298.398 177.187,297.228 177.547,296.153 177.970 C 293.507 179.014,284.828 181.662,278.800 183.265 C 274.674 184.363,273.818 184.570,267.205 186.074 C 264.018 186.798,261.744 187.455,262.153 187.534 C 262.562 187.613,263.639 187.489,264.548 187.258 C 265.457 187.028,267.190 186.624,268.400 186.360 C 271.022 185.790,278.681 183.833,282.600 182.732 C 284.140 182.300,286.519 181.633,287.888 181.252 C 289.256 180.870,290.501 180.432,290.654 180.279 C 290.808 180.126,291.266 180.000,291.672 180.000 C 292.078 180.000,292.723 179.838,293.105 179.639 C 293.487 179.440,294.610 179.049,295.600 178.769 C 296.590 178.490,297.571 178.112,297.780 177.930 C 297.989 177.749,298.486 177.600,298.885 177.600 C 299.284 177.600,299.923 177.441,300.305 177.247 C 303.380 175.683,304.143 175.686,304.511 177.267 C 304.847 178.711,307.045 184.778,307.338 185.072 C 308.391 186.125,307.523 187.090,304.700 188.004 C 303.105 188.521,301.629 189.092,301.420 189.272 C 301.211 189.452,300.637 189.600,300.144 189.600 C 299.651 189.600,299.136 189.780,299.000 190.000 C 298.864 190.220,298.401 190.400,297.971 190.400 C 297.541 190.400,296.877 190.562,296.495 190.761 C 296.113 190.960,294.990 191.340,294.000 191.607 C 293.010 191.873,291.840 192.226,291.400 192.390 C 290.577 192.698,289.140 193.123,286.000 193.988 C 285.010 194.260,283.787 194.645,283.281 194.842 C 282.776 195.039,281.931 195.200,281.405 195.200 C 280.878 195.200,280.324 195.399,280.174 195.643 C 279.983 195.952,280.308 196.004,281.250 195.815 C 283.835 195.298,301.289 190.000,304.000 188.910 C 304.330 188.777,305.410 188.367,306.400 187.997 C 308.466 187.226,308.533 186.829,307.196 183.300 C 306.224 180.736,304.956 177.247,304.651 176.300 C 304.363 175.408,303.066 175.444,301.000 176.400 M256.200 188.424 C 253.985 188.935,253.554 189.113,254.800 189.004 C 257.501 188.768,260.753 188.180,261.061 187.872 C 261.509 187.424,259.599 187.641,256.200 188.424 M248.600 189.645 C 229.775 192.952,201.241 194.513,183.557 193.203 C 174.463 192.530,167.993 191.941,163.280 191.359 C 158.254 190.738,156.939 190.673,157.331 191.065 C 157.477 191.210,159.172 191.493,161.098 191.693 C 163.024 191.893,166.040 192.211,167.800 192.400 C 177.992 193.491,185.031 193.797,200.000 193.797 C 218.920 193.797,230.242 193.036,245.000 190.775 C 246.540 190.539,248.826 190.218,250.079 190.060 C 252.504 189.756,253.724 189.168,251.767 189.247 C 251.125 189.273,249.700 189.452,248.600 189.645 M153.746 192.322 C 146.595 196.960,145.218 197.804,142.675 199.107 C 142.056 199.424,141.641 199.774,141.751 199.885 C 142.062 200.195,154.535 192.641,156.180 191.145 C 157.037 190.366,155.951 190.891,153.746 192.322 M277.000 196.390 C 276.560 196.575,274.763 197.044,273.006 197.432 C 271.250 197.820,270.045 198.215,270.328 198.309 C 270.843 198.481,279.600 196.446,279.600 196.154 C 279.600 195.882,277.826 196.043,277.000 196.390 M264.800 199.214 C 263.370 199.603,262.602 199.939,263.094 199.961 C 263.957 199.999,266.731 199.423,268.800 198.776 C 270.936 198.108,267.468 198.488,264.800 199.214 M140.800 200.314 C 140.800 200.764,141.987 201.118,145.200 201.625 C 146.410 201.816,148.570 202.166,150.000 202.403 C 156.785 203.530,157.709 203.651,168.400 204.809 C 177.808 205.828,186.251 206.200,200.000 206.200 C 213.749 206.200,222.192 205.828,231.600 204.809 C 240.064 203.892,242.375 203.616,244.900 203.222 C 246.385 202.990,248.725 202.631,250.100 202.423 C 251.475 202.216,253.635 201.856,254.900 201.623 C 256.165 201.391,258.215 201.025,259.455 200.812 C 261.734 200.420,262.743 200.000,261.405 200.000 C 261.004 200.000,258.319 200.430,255.438 200.956 C 252.557 201.481,248.670 202.120,246.800 202.374 C 244.930 202.629,242.320 202.999,241.000 203.196 C 235.935 203.952,223.463 205.060,214.000 205.596 C 199.102 206.439,186.292 206.008,165.600 203.968 C 163.290 203.740,160.320 203.395,159.000 203.201 C 157.680 203.007,155.160 202.637,153.400 202.380 C 148.208 201.621,142.253 200.538,141.500 200.215 C 141.100 200.043,140.800 200.086,140.800 200.314 M299.600 233.076 C 297.510 233.818,294.630 234.800,293.200 235.259 C 287.302 237.150,286.235 237.544,286.939 237.571 C 287.346 237.587,291.269 236.408,295.657 234.951 C 300.046 233.495,303.747 232.414,303.883 232.550 C 304.020 232.686,304.443 233.653,304.825 234.699 C 305.207 235.744,305.988 237.859,306.560 239.398 C 307.965 243.178,307.936 243.329,305.700 243.971 C 304.655 244.271,303.620 244.638,303.400 244.786 C 303.180 244.934,302.190 245.286,301.200 245.567 C 300.210 245.848,299.087 246.240,298.705 246.439 C 298.323 246.638,297.736 246.800,297.400 246.800 C 297.064 246.800,296.477 246.965,296.095 247.166 C 295.713 247.368,294.050 247.918,292.400 248.389 C 288.761 249.429,287.504 249.934,288.457 249.973 C 289.201 250.004,307.092 244.187,307.968 243.630 C 308.528 243.274,308.182 241.798,306.789 238.600 C 306.598 238.160,306.033 236.570,305.533 235.067 C 304.357 231.526,304.157 231.459,299.600 233.076 M114.486 238.134 C 113.603 239.293,112.801 249.191,113.506 250.235 C 113.668 250.474,114.250 250.793,114.800 250.944 C 119.487 252.225,125.320 253.749,126.800 254.078 C 127.790 254.298,129.320 254.651,130.200 254.861 C 132.185 255.336,134.293 255.786,137.400 256.400 C 138.720 256.661,140.610 257.037,141.600 257.235 C 143.311 257.578,145.613 257.973,151.000 258.846 C 157.010 259.820,160.774 260.281,171.800 261.395 C 178.315 262.052,191.916 262.633,191.550 262.237 C 191.413 262.089,187.633 261.787,183.150 261.567 C 166.747 260.761,154.520 259.248,138.200 256.003 C 136.880 255.741,135.080 255.386,134.200 255.214 C 132.331 254.850,126.111 253.391,123.800 252.775 C 122.920 252.541,121.480 252.186,120.600 251.988 C 119.720 251.790,117.830 251.291,116.400 250.879 L 113.800 250.130 113.687 247.765 C 113.390 241.564,114.948 237.200,116.922 238.702 C 117.185 238.902,118.480 239.292,119.800 239.568 C 121.120 239.845,122.513 240.235,122.895 240.435 C 123.277 240.636,124.031 240.800,124.571 240.800 C 125.111 240.800,125.652 240.961,125.774 241.158 C 125.895 241.355,126.671 241.610,127.497 241.725 C 128.324 241.840,129.810 242.139,130.800 242.389 C 133.713 243.125,137.832 244.008,141.800 244.747 C 142.900 244.952,144.880 245.327,146.200 245.580 C 155.142 247.294,165.973 248.670,178.400 249.671 C 185.947 250.279,214.588 250.280,221.800 249.672 C 234.800 248.577,242.243 247.632,254.000 245.585 C 255.210 245.374,256.920 245.098,257.800 244.970 C 258.680 244.843,259.760 244.584,260.200 244.394 C 260.640 244.205,261.630 243.958,262.400 243.847 C 263.170 243.736,264.700 243.443,265.800 243.196 C 266.900 242.950,268.476 242.651,269.303 242.532 C 270.129 242.413,270.905 242.155,271.026 241.958 C 271.148 241.761,271.856 241.600,272.600 241.600 C 273.344 241.600,274.064 241.420,274.200 241.200 C 274.336 240.980,275.056 240.800,275.800 240.800 C 276.544 240.800,277.252 240.640,277.373 240.444 C 277.494 240.249,278.179 239.995,278.896 239.881 C 279.613 239.768,280.920 239.463,281.800 239.204 C 282.680 238.946,283.897 238.638,284.505 238.521 C 285.113 238.404,285.726 238.120,285.867 237.891 C 286.035 237.620,285.787 237.569,285.163 237.746 C 282.705 238.441,270.046 241.745,268.800 242.016 C 268.030 242.184,266.500 242.520,265.400 242.763 C 264.300 243.006,262.410 243.400,261.200 243.639 C 259.990 243.878,258.190 244.237,257.200 244.435 C 254.806 244.916,251.168 245.548,248.100 246.018 C 246.725 246.228,244.385 246.589,242.900 246.820 C 218.037 250.683,184.417 250.842,159.800 247.213 C 152.340 246.114,148.201 245.444,144.800 244.787 C 143.810 244.595,141.920 244.235,140.600 243.987 C 135.971 243.115,122.545 239.889,117.521 238.441 C 115.516 237.863,114.752 237.786,114.486 238.134 M56.164 253.000 C 56.163 256.740,56.223 258.324,56.297 256.520 C 56.371 254.715,56.372 251.655,56.298 249.720 C 56.225 247.784,56.164 249.260,56.164 253.000 M343.767 255.800 C 343.767 259.980,343.826 261.636,343.898 259.479 C 343.971 257.323,343.970 253.903,343.898 251.879 C 343.825 249.856,343.766 251.620,343.767 255.800 M285.958 250.175 C 285.743 250.390,271.121 254.089,267.800 254.769 C 266.480 255.039,264.770 255.415,264.000 255.606 C 263.230 255.796,261.430 256.155,260.000 256.403 C 258.570 256.651,256.680 257.011,255.800 257.203 C 253.820 257.636,251.768 257.984,248.400 258.456 C 246.970 258.657,244.630 258.985,243.200 259.185 C 234.130 260.456,227.531 261.049,216.863 261.555 C 212.388 261.767,208.608 262.068,208.463 262.224 C 207.655 263.095,233.612 261.189,244.100 259.607 C 252.112 258.399,254.876 257.940,258.600 257.198 C 259.700 256.979,261.500 256.627,262.600 256.416 C 265.520 255.856,270.848 254.684,273.400 254.040 C 274.280 253.818,275.720 253.463,276.600 253.250 C 277.480 253.037,279.640 252.477,281.400 252.004 C 283.160 251.531,285.199 250.993,285.932 250.807 C 287.536 250.401,288.033 250.000,286.933 250.000 C 286.493 250.000,286.054 250.079,285.958 250.175 M198.707 262.690 C 199.426 262.779,200.506 262.777,201.107 262.686 C 201.708 262.595,201.120 262.522,199.800 262.524 C 198.480 262.526,197.988 262.601,198.707 262.690 " stroke="none" fill="#36c4c4" fill-rule="evenodd"></path></g></svg>